<svg width="40" height="40" viewBox="0 0 40 40" fill="none" xmlns="http://www.w3.org/2000/svg">
<g clip-path="url(#clip0)">
<path d="M16.9515 2.14284C16.4016 1.19046 15.027 1.19046 14.4771 2.14284L9.49891 10.7654C9.14542 11.3776 9.14143 12.131 9.48842 12.747L23.4624 37.553C23.8168 38.1822 24.4828 38.5714 25.2049 38.5714H35.5092C36.6089 38.5714 37.2962 37.3809 36.7464 36.4286L16.9515 2.14284Z" fill="white"/>
<path d="M6.12046 27.4018L3.69809 23.2143C3.34096 22.5 3.78966 22.1429 4.41237 22.1429H12.5368C13.2548 22.1429 13.9178 22.5278 14.2738 23.1515L16.4159 26.9046C16.7963 27.5713 16.315 28.4003 15.5474 28.4003H7.85166C7.13773 28.4003 6.47794 28.0197 6.12046 27.4018Z" fill="white"/>
</g>
<defs>
<clipPath id="clip0">
<rect width="40" height="40" fill="white"/>
</clipPath>
</defs>
</svg>
