<svg width="24" height="24" viewBox="0 0 24 24" fill="none" xmlns="http://www.w3.org/2000/svg">
<path d="M11.9922 1.00006C11.9403 1.0009 11.889 1.00979 11.8398 1.02642C10.9919 1.03895 10.1584 1.12989 9.36914 1.32721C9.02682 1.41056 8.68848 1.51588 8.35254 1.63873C8.27205 1.6478 8.19497 1.67629 8.12793 1.72174C7.69846 1.87878 7.28165 2.06069 6.88574 2.27057C6.23586 2.6081 5.62716 3.02722 5.05762 3.49322C4.98137 3.52419 4.91395 3.5735 4.86133 3.63678C4.80812 3.68127 4.75492 3.72566 4.70312 3.77349C4.04379 4.35957 3.45225 5.02383 2.94434 5.75689C2.79487 5.97179 2.65794 6.19563 2.52637 6.42096C2.47369 6.48024 2.43586 6.5512 2.41602 6.62799C1.83863 7.64953 1.42201 8.7754 1.20215 9.9649C1.1685 10.0353 1.15178 10.1125 1.15332 10.1905C1.12422 10.3529 1.09633 10.5166 1.07812 10.6895C1.02632 11.1221 1 11.5602 1 12.0069C1 12.4536 1.02631 12.8916 1.07812 13.3243C1.09633 13.4972 1.12422 13.6609 1.15332 13.8233C1.15193 13.9009 1.16865 13.9778 1.20215 14.0479C1.4218 15.2369 1.83719 16.3626 2.41406 17.3838C2.43419 17.4615 2.47271 17.5332 2.52637 17.5928C2.65808 17.8184 2.7947 18.0428 2.94434 18.2579C3.45279 18.9916 4.04444 19.6503 4.70117 20.2393C4.7528 20.287 4.80636 20.3307 4.85938 20.3751L4.86035 20.376C4.91329 20.4403 4.98143 20.4903 5.05859 20.5215H5.05957C5.62864 20.987 6.2365 21.406 6.88574 21.7432C7.28165 21.9531 7.69846 22.135 8.12793 22.2921C8.19469 22.3374 8.27141 22.3658 8.35156 22.3751C8.6878 22.4981 9.02652 22.6032 9.36914 22.6866C10.1584 22.8839 10.9919 22.9748 11.8398 22.9874C11.9437 23.0225 12.0563 23.0225 12.1602 22.9874C13.0081 22.9748 13.8416 22.8839 14.6309 22.6866C14.9732 22.6032 15.3115 22.4979 15.6475 22.3751C15.7279 22.366 15.805 22.3375 15.8721 22.2921C16.3015 22.135 16.7184 21.9531 17.1143 21.7432C17.7641 21.4057 18.3728 20.9866 18.9424 20.5206C19.0186 20.4896 19.0861 20.4403 19.1387 20.377C19.1924 20.3321 19.2465 20.2877 19.2988 20.2393C19.9556 19.6503 20.5472 18.9916 21.0557 18.2579V18.2569C21.2051 18.042 21.3421 17.8182 21.4736 17.5928C21.5263 17.5336 21.5641 17.4626 21.584 17.3858C22.1614 16.3643 22.578 15.2384 22.7979 14.0489C22.8315 13.9785 22.8482 13.9013 22.8467 13.8233C22.8757 13.6609 22.9037 13.4972 22.9219 13.3243C22.9737 12.8916 23 12.4536 23 12.0069C23 11.5602 22.9737 11.1221 22.9219 10.6895C22.9037 10.5166 22.8758 10.3529 22.8467 10.1905C22.8481 10.1128 22.8313 10.0359 22.7979 9.96588C22.5782 8.77691 22.1628 7.65116 21.5859 6.62994C21.5658 6.55228 21.5273 6.4806 21.4736 6.42096C21.3421 6.19563 21.2051 5.97179 21.0557 5.75689V5.75592C20.5478 5.02311 19.956 4.35941 19.2969 3.77349C19.2458 3.72629 19.1931 3.68267 19.1406 3.63873C19.1403 3.6384 19.14 3.63808 19.1396 3.63775C19.0867 3.5735 19.0186 3.52349 18.9414 3.49224C18.9411 3.49224 18.9408 3.49224 18.9404 3.49224C18.3714 3.02682 17.7635 2.60777 17.1143 2.27057C16.7184 2.06069 16.3015 1.87878 15.8721 1.72174C15.8053 1.67643 15.7286 1.64795 15.6484 1.63873C15.3122 1.51572 14.9735 1.41063 14.6309 1.32721C13.8416 1.12989 13.0081 1.03895 12.1602 1.02642C12.1061 1.00811 12.0493 0.999193 11.9922 1.00006ZM8.24512 1.66998C8.24167 1.67119 8.23882 1.67365 8.23535 1.67486C8.2338 1.67546 8.23207 1.67524 8.23047 1.67584L8.24512 1.66998ZM15.7549 1.66998L15.7695 1.67584C15.768 1.67524 15.7662 1.67546 15.7646 1.67486C15.7612 1.67365 15.7584 1.67119 15.7549 1.66998ZM11.5 2.06744V4.06646C11.0204 4.0968 10.5396 4.12617 10.0869 4.23639C10.0866 4.23639 10.0863 4.23639 10.0859 4.23639C9.97033 4.26474 9.85757 4.30757 9.74316 4.34088L9.05957 2.4649C9.24168 2.40888 9.41683 2.34451 9.6084 2.29791C9.60938 2.29759 9.61035 2.29726 9.61133 2.29693C10.2119 2.14678 10.8555 2.10024 11.5 2.06744ZM12.5 2.06744C13.1445 2.10024 13.7881 2.14679 14.3887 2.29693C14.3896 2.29726 14.3906 2.29759 14.3916 2.29791C14.5832 2.34451 14.7583 2.40888 14.9404 2.4649L14.2568 4.34088C14.1424 4.30757 14.0297 4.26474 13.9141 4.23639C13.9137 4.23639 13.9134 4.23639 13.9131 4.23639C13.4604 4.12618 12.9796 4.0968 12.5 4.06646V2.06744ZM8.12305 2.81353L8.80566 4.69146C8.63057 4.76795 8.45217 4.83292 8.28223 4.92486L8.28125 4.92584C8.013 5.06707 7.77369 5.26404 7.52051 5.4356C7.41836 5.44906 7.32286 5.49374 7.24707 5.56353L5.98926 4.06549C6.42565 3.73514 6.86646 3.40649 7.35059 3.15533C7.35189 3.15469 7.35319 3.15403 7.35449 3.15338C7.6045 3.02084 7.86507 2.92207 8.12305 2.81353ZM15.877 2.81353C16.1349 2.92207 16.3955 3.02084 16.6455 3.15338C16.6468 3.15403 16.6481 3.15469 16.6494 3.15533C17.1335 3.40649 17.5744 3.73514 18.0107 4.06549L16.7529 5.56353C16.677 5.49409 16.5815 5.44976 16.4795 5.43658C16.2262 5.26489 15.9872 5.06716 15.7188 4.92584C15.5484 4.83365 15.3698 4.76812 15.1943 4.69146L15.877 2.81353ZM5.21289 4.69537L6.50293 6.23248C6.10688 6.61012 5.72689 7.00815 5.41309 7.46295C5.38546 7.50263 5.36436 7.54408 5.33789 7.58404L3.60449 6.58307C3.65895 6.49846 3.70879 6.40891 3.76562 6.32721C3.76563 6.32688 3.76563 6.32656 3.76562 6.32623C4.18307 5.72372 4.68123 5.19008 5.21289 4.69537ZM18.7871 4.69537C19.3188 5.19008 19.8169 5.72372 20.2344 6.32623C20.2344 6.32656 20.2344 6.32688 20.2344 6.32721C20.2912 6.40891 20.341 6.49846 20.3955 6.58307L18.6621 7.58404C18.6356 7.54408 18.6145 7.50263 18.5869 7.46295L18.585 7.461C18.2715 7.00706 17.8925 6.60948 17.4971 6.23248L18.7871 4.69537ZM11.5 5.06646V7.03228C10.7703 7.10526 10.0882 7.33964 9.48438 7.69342L8.32227 6.09478C8.46812 6.00461 8.59507 5.89014 8.74805 5.80963C8.74968 5.80866 8.75131 5.80768 8.75293 5.8067C9.00673 5.66904 9.27902 5.55292 9.55664 5.44928C9.59462 5.43961 9.63133 5.42552 9.66602 5.40728C9.87631 5.33011 10.0925 5.26393 10.3242 5.20709L10.3232 5.20807C10.7003 5.11628 11.1016 5.09519 11.5 5.06646ZM12.5 5.06646C12.8984 5.09519 13.2997 5.11627 13.6768 5.20807L13.6758 5.20709C13.9078 5.264 14.1244 5.32997 14.335 5.40728C14.3702 5.426 14.4076 5.44043 14.4463 5.45025C14.7229 5.55364 14.9942 5.66952 15.2471 5.8067C15.2487 5.80768 15.2503 5.80866 15.252 5.80963C15.4049 5.89014 15.5319 6.00461 15.6777 6.09478L14.5156 7.69342C13.9118 7.33964 13.2297 7.10526 12.5 7.03228V5.06646ZM7.49609 6.65826L8.67676 8.28326C8.14709 8.75659 7.71651 9.33812 7.42578 9.99615L5.52637 9.37701C5.63906 9.09213 5.76294 8.81508 5.91406 8.55572C5.93723 8.52393 5.95657 8.48951 5.97168 8.45318C6.05633 8.30765 6.14228 8.1668 6.23535 8.03326C6.23568 8.03261 6.236 8.03196 6.23633 8.03131C6.55797 7.56515 6.9368 7.13957 7.35742 6.76568C7.35807 6.76503 7.35873 6.76438 7.35938 6.76373C7.39024 6.73595 7.40787 6.72138 7.42969 6.70318C7.43034 6.70286 7.43099 6.70253 7.43164 6.70221C7.45424 6.68926 7.47579 6.67457 7.49609 6.65826ZM16.5039 6.65826C16.5237 6.67381 16.5445 6.68785 16.5664 6.70025C16.5889 6.71887 16.6081 6.73449 16.6406 6.76373C16.6413 6.76438 16.6419 6.76503 16.6426 6.76568C17.0632 7.13957 17.442 7.56515 17.7637 8.03131C17.764 8.03196 17.7643 8.03261 17.7646 8.03326C17.8579 8.16702 17.9435 8.30837 18.0283 8.45416C18.0436 8.49121 18.0633 8.52629 18.0869 8.55865C18.0872 8.55898 18.0876 8.5593 18.0879 8.55963C18.2371 8.81619 18.3612 9.09211 18.4766 9.37603L16.5742 9.99615C16.2835 9.33812 15.8529 8.75659 15.3232 8.28326L16.5039 6.65826ZM3.125 7.46002L4.8584 8.46002C4.7428 8.69324 4.6146 8.92122 4.52441 9.1651V9.16607C4.49823 9.23309 4.48927 9.30817 4.46484 9.37603C4.42433 9.4278 4.39441 9.48705 4.37682 9.5504C4.35922 9.61374 4.35429 9.67993 4.3623 9.74518C4.32348 9.87258 4.28598 10.0005 4.25391 10.1309L2.28125 9.78326C2.46554 8.96612 2.74969 8.18806 3.125 7.46002ZM20.875 7.46002C21.2503 8.18806 21.5345 8.96612 21.7188 9.78326L19.748 10.1309C19.716 9.9978 19.6779 9.86681 19.6387 9.73639C19.6518 9.61076 19.6169 9.48481 19.541 9.38385C19.5158 9.31284 19.5079 9.23532 19.4805 9.1651C19.3876 8.92216 19.2598 8.69268 19.1436 8.45904L20.875 7.46002ZM11.9414 8.00982C11.9816 8.01473 12.0223 8.01473 12.0625 8.00982C12.8755 8.0223 13.6289 8.27347 14.2539 8.69928C14.3034 8.75831 14.3659 8.8051 14.4365 8.836C15.0401 9.2998 15.5046 9.93133 15.7646 10.6631C15.7712 10.7425 15.7967 10.8192 15.8389 10.8868C15.9419 11.2424 16 11.6173 16 12.0069C16 12.3958 15.9416 12.77 15.8389 13.1251C15.7964 13.1932 15.7709 13.2706 15.7646 13.3506C15.5049 14.0816 15.041 14.7122 14.4385 15.1758C14.367 15.207 14.3038 15.2545 14.2539 15.3145C13.6279 15.741 12.8731 15.9922 12.0586 16.004C12.0184 15.9991 11.9777 15.9991 11.9375 16.004C10.2226 15.9776 8.77936 14.8814 8.23535 13.3506C8.22878 13.2713 8.20333 13.1946 8.16113 13.127C8.05807 12.7714 8 12.3965 8 12.0069C8 11.618 8.05841 11.2438 8.16113 10.8887C8.20363 10.8206 8.22909 10.7432 8.23535 10.6631C8.77978 9.13123 10.2248 8.03453 11.9414 8.00982ZM18.7715 10.3311C18.8054 10.4685 18.8596 10.5978 18.8848 10.7393C18.8875 10.7781 18.8947 10.8165 18.9062 10.8536C18.9218 10.9585 18.9375 11.0606 18.9482 11.1573C18.9482 11.1586 18.9482 11.1599 18.9482 11.1612C18.9811 11.4383 19 11.7238 19 12.0069C19 12.29 18.9811 12.5755 18.9482 12.8526C18.9482 12.8539 18.9482 12.8552 18.9482 12.8565C18.9374 12.9538 18.9219 13.0565 18.9062 13.1622C18.8949 13.1983 18.8877 13.2357 18.8848 13.2735C18.8596 13.4153 18.8055 13.545 18.7715 13.6827L16.8838 13.0684C16.9583 12.7258 17 12.3714 17 12.0069C17 11.6424 16.9583 11.288 16.8838 10.9454L18.7715 10.3311ZM5.23047 10.3321L7.11621 10.9454C7.04168 11.288 7 11.6424 7 12.0069C7 12.3714 7.04168 12.7258 7.11621 13.0684L5.23047 13.6817C5.19594 13.5445 5.14031 13.414 5.11523 13.2735C5.11246 13.235 5.10526 13.197 5.09375 13.1602C5.07822 13.0553 5.0625 12.9532 5.05176 12.8565C5.05176 12.8552 5.05176 12.8539 5.05176 12.8526C5.01888 12.5755 5 12.29 5 12.0069C5 11.7238 5.01888 11.4383 5.05176 11.1612C5.05176 11.1599 5.05176 11.1586 5.05176 11.1573C5.06257 11.06 5.0781 10.9573 5.09375 10.8516C5.10504 10.8158 5.11224 10.7787 5.11523 10.7413C5.14034 10.6005 5.19587 10.4696 5.23047 10.3321ZM2.07715 10.7628L4.05469 11.1114C4.0223 11.4035 4 11.7032 4 12.0069C4 12.3106 4.0223 12.6102 4.05469 12.9024L2.07715 13.251C2.07599 13.2407 2.07336 13.2301 2.07227 13.2198C2.07196 13.2172 2.07164 13.2146 2.07129 13.212C2.02371 12.8171 2 12.4175 2 12.0069C2 11.5963 2.02371 11.1967 2.07129 10.8018C2.07164 10.7992 2.07196 10.7966 2.07227 10.794C2.07336 10.7837 2.07599 10.7731 2.07715 10.7628ZM21.9229 10.7628C21.924 10.7731 21.9266 10.7837 21.9277 10.794C21.928 10.7966 21.9284 10.7992 21.9287 10.8018C21.9762 11.1967 22 11.5963 22 12.0069C22 12.4175 21.9763 12.8171 21.9287 13.212C21.9284 13.2146 21.928 13.2172 21.9277 13.2198C21.9266 13.2301 21.924 13.2407 21.9229 13.251L19.9453 12.9024C19.9777 12.6102 20 12.3106 20 12.0069C20 11.7032 19.9777 11.4035 19.9453 11.1114L21.9229 10.7628ZM4.25391 13.8829C4.28606 14.0136 4.32337 14.1419 4.3623 14.2696C4.34639 14.401 4.38327 14.5335 4.46484 14.6378C4.48927 14.7056 4.49823 14.7807 4.52441 14.8477V14.8487C4.6146 15.0926 4.7428 15.3205 4.8584 15.5538L3.125 16.5538C2.74969 15.8257 2.46554 15.0477 2.28125 14.2305L4.25391 13.8829ZM19.748 13.8829L21.7188 14.2305C21.5345 15.0477 21.2503 15.8257 20.875 16.5538L19.1436 15.5547C19.2598 15.3211 19.3876 15.0916 19.4805 14.8487C19.508 14.7782 19.5157 14.7003 19.541 14.629C19.6172 14.5277 19.6521 14.4014 19.6387 14.2754C19.6777 14.1456 19.7161 14.0154 19.748 13.8829ZM7.42578 14.0176C7.71651 14.6757 8.14709 15.2572 8.67676 15.7305L7.49609 17.3555C7.47635 17.34 7.45545 17.3259 7.43359 17.3135C7.41109 17.2949 7.39186 17.2793 7.35938 17.2501C7.35873 17.2494 7.35807 17.2488 7.35742 17.2481C6.9368 16.8742 6.55797 16.4486 6.23633 15.9825C6.236 15.9818 6.23568 15.9812 6.23535 15.9805C6.14212 15.8468 6.05646 15.7054 5.97168 15.5596C5.95641 15.5226 5.93673 15.4875 5.91309 15.4551C5.91309 15.4548 5.91309 15.4545 5.91309 15.4542C5.7628 15.1958 5.63857 14.9204 5.52637 14.6368L7.42578 14.0176ZM16.5742 14.0176L18.4766 14.6378C18.3607 14.9228 18.2359 15.1996 18.0859 15.4571C18.0627 15.4892 18.0434 15.5239 18.0283 15.5606C17.9437 15.7061 17.8577 15.847 17.7646 15.9805C17.7643 15.9812 17.764 15.9818 17.7637 15.9825C17.442 16.4486 17.0632 16.8742 16.6426 17.2481C16.6419 17.2488 16.6413 17.2494 16.6406 17.2501C16.6098 17.2778 16.5921 17.2924 16.5703 17.3106C16.5698 17.311 16.5689 17.3111 16.5684 17.3116C16.5458 17.3245 16.5242 17.3392 16.5039 17.3555L15.3232 15.7305C15.8529 15.2572 16.2835 14.6757 16.5742 14.0176ZM9.48438 16.3204C10.0882 16.6741 10.7703 16.9085 11.5 16.9815V18.9473C11.1016 18.9186 10.7003 18.8975 10.3232 18.8057L10.3242 18.8067C10.0922 18.7498 9.8756 18.6838 9.66504 18.6065C9.62978 18.5878 9.5924 18.5734 9.55371 18.5635C9.27709 18.4601 9.00585 18.3443 8.75293 18.2071C8.75131 18.2061 8.74968 18.2051 8.74805 18.2042C8.59507 18.1236 8.46812 18.0092 8.32227 17.919L9.48438 16.3204ZM14.5156 16.3204L15.6777 17.919C15.5319 18.0092 15.4049 18.1236 15.252 18.2042C15.2503 18.2051 15.2487 18.2061 15.2471 18.2071C14.9933 18.3447 14.721 18.4609 14.4434 18.5645C14.4054 18.5742 14.3687 18.5883 14.334 18.6065C14.1237 18.6837 13.9075 18.7499 13.6758 18.8067L13.6768 18.8057C13.2997 18.8975 12.8984 18.9186 12.5 18.9473V16.9815C13.2297 16.9085 13.9118 16.6741 14.5156 16.3204ZM5.33789 16.4297C5.36486 16.4705 5.38686 16.5124 5.41504 16.5528C5.72847 17.0067 6.10754 17.4043 6.50293 17.7813L5.21289 19.3184C4.68001 18.8197 4.18215 18.2887 3.76562 17.6876C3.76563 17.6872 3.76563 17.6869 3.76562 17.6866C3.70879 17.6049 3.65895 17.5153 3.60449 17.4307L5.33789 16.4297ZM18.6621 16.4297L20.3955 17.4307C20.341 17.5153 20.2912 17.6049 20.2344 17.6866C20.2344 17.6869 20.2344 17.6872 20.2344 17.6876C19.8178 18.2887 19.32 18.8197 18.7871 19.3184L17.4971 17.7813C17.8925 17.4043 18.2715 17.0067 18.585 16.5528L18.5869 16.5508C18.6145 16.5112 18.6356 16.4697 18.6621 16.4297ZM7.24707 18.4503C7.32286 18.5201 7.41836 18.5647 7.52051 18.5782C7.77369 18.7498 8.013 18.9467 8.28125 19.0879L8.28223 19.0889C8.45217 19.1809 8.63057 19.2458 8.80566 19.3223L8.12305 21.2003C7.86507 21.0917 7.6045 20.9929 7.35449 20.8604C7.35319 20.8598 7.35189 20.8591 7.35059 20.8585C6.86643 20.6073 6.42565 20.2786 5.98926 19.9483L7.24707 18.4503ZM16.7529 18.4512L18.0107 19.9483C17.5744 20.2786 17.1335 20.6073 16.6494 20.8585C16.6481 20.8591 16.6468 20.8598 16.6455 20.8604C16.3955 20.9929 16.1349 21.0917 15.877 21.2003L15.1943 19.3223C15.3694 19.2458 15.5478 19.1809 15.7178 19.0889L15.7188 19.0879C15.987 18.9467 16.2263 18.7498 16.4795 18.5782C16.5815 18.565 16.677 18.5207 16.7529 18.4512ZM9.74316 19.6729C9.85757 19.7062 9.97033 19.749 10.0859 19.7774C10.0863 19.7774 10.0866 19.7774 10.0869 19.7774C10.5396 19.8876 11.0204 19.917 11.5 19.9473V21.9463C10.8555 21.9136 10.2119 21.867 9.61133 21.7169C9.61035 21.7165 9.60938 21.7162 9.6084 21.7159C9.41683 21.6693 9.24168 21.6049 9.05957 21.5489L9.74316 19.6729ZM14.2568 19.6729L14.9404 21.5489C14.7583 21.6049 14.5832 21.6693 14.3916 21.7159C14.3906 21.7162 14.3896 21.7165 14.3887 21.7169C13.7881 21.867 13.1445 21.9136 12.5 21.9463V19.9473C12.9796 19.917 13.4604 19.8876 13.9131 19.7774C13.9134 19.7774 13.9137 19.7774 13.9141 19.7774C14.0297 19.749 14.1424 19.7062 14.2568 19.6729ZM8.23047 22.3379C8.23202 22.3386 8.23375 22.3383 8.23535 22.3389C8.2388 22.3401 8.24164 22.3426 8.24512 22.3438L8.23047 22.3379ZM15.7695 22.3379L15.7549 22.3438C15.7584 22.3426 15.7612 22.3402 15.7646 22.3389C15.7662 22.3384 15.768 22.3385 15.7695 22.3379Z" fill="#0E0C16"/>
</svg>
